<svg width="41" height="40" viewBox="0 0 41 40" fill="none" xmlns="http://www.w3.org/2000/svg">
<rect x="0.666668" y="0.5" width="39" height="39" rx="3.5" fill="white"/>
<rect x="0.666668" y="0.5" width="39" height="39" rx="3.5" stroke="black"/>
<g clip-path="url(#clip0_9_7367)">
<path opacity="0.2" d="M23.9167 15.5H16.4167C16.0025 15.5 15.6667 15.8358 15.6667 16.25V23.75C15.6667 24.1642 16.0025 24.5 16.4167 24.5H23.9167C24.3309 24.5 24.6667 24.1642 24.6667 23.75V16.25C24.6667 15.8358 24.3309 15.5 23.9167 15.5Z" fill="black"/>
<path d="M24.6667 11.75H28.4167V15.5" stroke="black" stroke-width="1.5" stroke-linecap="round" stroke-linejoin="round"/>
<path d="M15.6667 28.25H11.9167V24.5" stroke="black" stroke-width="1.5" stroke-linecap="round" stroke-linejoin="round"/>
<path d="M28.4167 24.5V28.25H24.6667" stroke="black" stroke-width="1.5" stroke-linecap="round" stroke-linejoin="round"/>
<path d="M11.9167 15.5V11.75H15.6667" stroke="black" stroke-width="1.5" stroke-linecap="round" stroke-linejoin="round"/>
<path d="M23.9167 15.5H16.4167C16.0025 15.5 15.6667 15.8358 15.6667 16.25V23.75C15.6667 24.1642 16.0025 24.5 16.4167 24.5H23.9167C24.3309 24.5 24.6667 24.1642 24.6667 23.75V16.25C24.6667 15.8358 24.3309 15.5 23.9167 15.5Z" stroke="black" stroke-width="1.5" stroke-linecap="round" stroke-linejoin="round"/>
</g>
<defs>
<clipPath id="clip0_9_7367">
<rect width="24" height="24" fill="white" transform="translate(8.16667 8)"/>
</clipPath>
</defs>
</svg>
